<svg xmlns="http://www.w3.org/2000/svg" width="1200" height="630" viewBox="0 0 1200 630">
  <rect width="1200" height="630" fill="#f7f4ef" />
  <rect x="54" y="54" width="1092" height="522" rx="28" fill="#ffffff" stroke="#d7d1c7" stroke-width="4" />
  <text
    x="96"
    y="154"
    fill="#121820"
    font-family="Inter, ui-sans-serif, system-ui, -apple-system, BlinkMacSystemFont, 'Segoe UI', sans-serif"
    font-size="82"
    font-weight="800"
  >Sorting Visualizer</text>
  <text
    x="100"
    y="212"
    fill="#53606d"
    font-family="Inter, ui-sans-serif, system-ui, -apple-system, BlinkMacSystemFont, 'Segoe UI', sans-serif"
    font-size="30"
    font-weight="600"
  >Interactive algorithm events, rendering, and sound</text>
  <g transform="translate(100 278)">
    <rect x="0" y="166" width="30" height="112" rx="8" fill="#276a73" />
    <rect x="52" y="84" width="30" height="194" rx="8" fill="#276a73" />
    <rect x="104" y="132" width="30" height="146" rx="8" fill="#276a73" />
    <rect x="156" y="38" width="30" height="240" rx="8" fill="#d6a938" />
    <rect x="208" y="184" width="30" height="94" rx="8" fill="#276a73" />
    <rect x="260" y="16" width="30" height="262" rx="8" fill="#c9503f" />
    <rect x="312" y="206" width="30" height="72" rx="8" fill="#276a73" />
    <rect x="364" y="110" width="30" height="168" rx="8" fill="#276a73" />
    <rect x="416" y="66" width="30" height="212" rx="8" fill="#276a73" />
    <rect x="468" y="142" width="30" height="136" rx="8" fill="#276a73" />
    <rect x="520" y="28" width="30" height="250" rx="8" fill="#d6a938" />
    <rect x="572" y="174" width="30" height="104" rx="8" fill="#276a73" />
    <rect x="624" y="92" width="30" height="186" rx="8" fill="#276a73" />
    <rect x="676" y="226" width="30" height="52" rx="8" fill="#276a73" />
    <rect x="728" y="58" width="30" height="220" rx="8" fill="#276a73" />
    <rect x="780" y="120" width="30" height="158" rx="8" fill="#276a73" />
    <rect x="832" y="196" width="30" height="82" rx="8" fill="#276a73" />
    <rect x="884" y="76" width="30" height="202" rx="8" fill="#3d7d46" />
    <rect x="936" y="34" width="30" height="244" rx="8" fill="#3d7d46" />
    <rect x="988" y="12" width="30" height="266" rx="8" fill="#3d7d46" />
    <path d="M0 292h1018" fill="none" stroke="#18202a" stroke-linecap="round" stroke-width="8" opacity="0.18" />
  </g>
</svg>
